<mxfile host="app.diagrams.net" modified="2023-10-25T02:20:25.831Z" agent="Mozilla/5.0 (Windows NT 10.0; Win64; x64) AppleWebKit/537.36 (KHTML, like Gecko) Chrome/118.0.0.0 Safari/537.36 Edg/118.0.2088.46" etag="D6aS-P5kXiwrnDYfqyg7" version="22.0.6" type="github">
  <diagram name="第 1 页" id="g8NSqclGXixzLS3Q1f7A">
    <mxGraphModel dx="2466" dy="1561" grid="0" gridSize="10" guides="1" tooltips="1" connect="1" arrows="1" fold="1" page="0" pageScale="1" pageWidth="827" pageHeight="1169" math="0" shadow="0">
      <root>
        <mxCell id="0" />
        <mxCell id="1" parent="0" />
        <mxCell id="8P9D7xR69Wtj62RSyPhr-5" style="edgeStyle=none;curved=1;rounded=0;sketch=1;hachureGap=4;jiggle=2;curveFitting=1;orthogonalLoop=1;jettySize=auto;html=1;fontFamily=Architects Daughter;fontSource=https%3A%2F%2Ffonts.googleapis.com%2Fcss%3Ffamily%3DArchitects%2BDaughter;fontSize=16;startSize=8;endSize=8;" edge="1" parent="1" source="8P9D7xR69Wtj62RSyPhr-1" target="8P9D7xR69Wtj62RSyPhr-2">
          <mxGeometry relative="1" as="geometry" />
        </mxCell>
        <mxCell id="8P9D7xR69Wtj62RSyPhr-1" value="Actor" style="shape=umlActor;verticalLabelPosition=bottom;verticalAlign=top;html=1;outlineConnect=0;sketch=1;hachureGap=4;jiggle=2;curveFitting=1;fontFamily=Architects Daughter;fontSource=https%3A%2F%2Ffonts.googleapis.com%2Fcss%3Ffamily%3DArchitects%2BDaughter;fontSize=20;" vertex="1" parent="1">
          <mxGeometry x="-27" y="37" width="30" height="60" as="geometry" />
        </mxCell>
        <mxCell id="8P9D7xR69Wtj62RSyPhr-2" value="启动gradio/jupyter" style="rounded=1;whiteSpace=wrap;html=1;sketch=1;hachureGap=4;jiggle=2;curveFitting=1;fontFamily=Architects Daughter;fontSource=https%3A%2F%2Ffonts.googleapis.com%2Fcss%3Ffamily%3DArchitects%2BDaughter;fontSize=20;" vertex="1" parent="1">
          <mxGeometry x="104" y="37" width="167" height="60" as="geometry" />
        </mxCell>
        <mxCell id="8P9D7xR69Wtj62RSyPhr-3" value="codeserver" style="ellipse;shape=cloud;whiteSpace=wrap;html=1;align=center;sketch=1;hachureGap=4;jiggle=2;curveFitting=1;fontFamily=Architects Daughter;fontSource=https%3A%2F%2Ffonts.googleapis.com%2Fcss%3Ffamily%3DArchitects%2BDaughter;fontSize=20;" vertex="1" parent="1">
          <mxGeometry x="348" y="37" width="181" height="60" as="geometry" />
        </mxCell>
        <mxCell id="8P9D7xR69Wtj62RSyPhr-4" style="edgeStyle=none;curved=1;rounded=0;sketch=1;hachureGap=4;jiggle=2;curveFitting=1;orthogonalLoop=1;jettySize=auto;html=1;entryX=0.07;entryY=0.4;entryDx=0;entryDy=0;entryPerimeter=0;fontFamily=Architects Daughter;fontSource=https%3A%2F%2Ffonts.googleapis.com%2Fcss%3Ffamily%3DArchitects%2BDaughter;fontSize=16;startSize=8;endSize=8;" edge="1" parent="1" source="8P9D7xR69Wtj62RSyPhr-2" target="8P9D7xR69Wtj62RSyPhr-3">
          <mxGeometry relative="1" as="geometry" />
        </mxCell>
        <mxCell id="8P9D7xR69Wtj62RSyPhr-6" value="start" style="text;html=1;align=center;verticalAlign=middle;resizable=0;points=[];autosize=1;strokeColor=none;fillColor=none;fontSize=20;fontFamily=Architects Daughter;" vertex="1" parent="1">
          <mxGeometry x="21" y="31" width="65" height="36" as="geometry" />
        </mxCell>
        <mxCell id="8P9D7xR69Wtj62RSyPhr-7" value="create" style="text;html=1;align=center;verticalAlign=middle;resizable=0;points=[];autosize=1;strokeColor=none;fillColor=none;fontSize=20;fontFamily=Architects Daughter;" vertex="1" parent="1">
          <mxGeometry x="275" y="24" width="82" height="36" as="geometry" />
        </mxCell>
        <mxCell id="8P9D7xR69Wtj62RSyPhr-9" style="edgeStyle=none;curved=1;rounded=0;sketch=1;hachureGap=4;jiggle=2;curveFitting=1;orthogonalLoop=1;jettySize=auto;html=1;entryX=0.625;entryY=0.2;entryDx=0;entryDy=0;entryPerimeter=0;fontFamily=Architects Daughter;fontSource=https%3A%2F%2Ffonts.googleapis.com%2Fcss%3Ffamily%3DArchitects%2BDaughter;fontSize=16;startSize=8;endSize=8;" edge="1" parent="1" source="8P9D7xR69Wtj62RSyPhr-1" target="8P9D7xR69Wtj62RSyPhr-3">
          <mxGeometry relative="1" as="geometry">
            <Array as="points">
              <mxPoint x="207" y="-81" />
            </Array>
          </mxGeometry>
        </mxCell>
        <mxCell id="8P9D7xR69Wtj62RSyPhr-11" value="access" style="text;html=1;align=center;verticalAlign=middle;resizable=0;points=[];autosize=1;strokeColor=none;fillColor=none;fontSize=20;fontFamily=Architects Daughter;" vertex="1" parent="1">
          <mxGeometry x="147" y="-60" width="84" height="36" as="geometry" />
        </mxCell>
        <mxCell id="8P9D7xR69Wtj62RSyPhr-16" style="edgeStyle=none;curved=1;rounded=0;sketch=1;hachureGap=4;jiggle=2;curveFitting=1;orthogonalLoop=1;jettySize=auto;html=1;fontFamily=Architects Daughter;fontSource=https%3A%2F%2Ffonts.googleapis.com%2Fcss%3Ffamily%3DArchitects%2BDaughter;fontSize=16;startSize=8;endSize=8;" edge="1" parent="1" source="8P9D7xR69Wtj62RSyPhr-12" target="8P9D7xR69Wtj62RSyPhr-3">
          <mxGeometry relative="1" as="geometry" />
        </mxCell>
        <mxCell id="8P9D7xR69Wtj62RSyPhr-12" value="Actor" style="shape=umlActor;verticalLabelPosition=bottom;verticalAlign=top;html=1;outlineConnect=0;sketch=1;hachureGap=4;jiggle=2;curveFitting=1;fontFamily=Architects Daughter;fontSource=https%3A%2F%2Ffonts.googleapis.com%2Fcss%3Ffamily%3DArchitects%2BDaughter;fontSize=20;" vertex="1" parent="1">
          <mxGeometry x="62" y="186" width="30" height="60" as="geometry" />
        </mxCell>
        <mxCell id="8P9D7xR69Wtj62RSyPhr-13" value="Actor" style="shape=umlActor;verticalLabelPosition=bottom;verticalAlign=top;html=1;outlineConnect=0;sketch=1;hachureGap=4;jiggle=2;curveFitting=1;fontFamily=Architects Daughter;fontSource=https%3A%2F%2Ffonts.googleapis.com%2Fcss%3Ffamily%3DArchitects%2BDaughter;fontSize=20;" vertex="1" parent="1">
          <mxGeometry x="595" y="164" width="30" height="60" as="geometry" />
        </mxCell>
        <mxCell id="8P9D7xR69Wtj62RSyPhr-17" style="edgeStyle=none;curved=1;rounded=0;sketch=1;hachureGap=4;jiggle=2;curveFitting=1;orthogonalLoop=1;jettySize=auto;html=1;fontFamily=Architects Daughter;fontSource=https%3A%2F%2Ffonts.googleapis.com%2Fcss%3Ffamily%3DArchitects%2BDaughter;fontSize=16;startSize=8;endSize=8;" edge="1" parent="1" source="8P9D7xR69Wtj62RSyPhr-14" target="8P9D7xR69Wtj62RSyPhr-3">
          <mxGeometry relative="1" as="geometry" />
        </mxCell>
        <mxCell id="8P9D7xR69Wtj62RSyPhr-14" value="Actor" style="shape=umlActor;verticalLabelPosition=bottom;verticalAlign=top;html=1;outlineConnect=0;sketch=1;hachureGap=4;jiggle=2;curveFitting=1;fontFamily=Architects Daughter;fontSource=https%3A%2F%2Ffonts.googleapis.com%2Fcss%3Ffamily%3DArchitects%2BDaughter;fontSize=20;" vertex="1" parent="1">
          <mxGeometry x="289" y="276" width="30" height="60" as="geometry" />
        </mxCell>
        <mxCell id="8P9D7xR69Wtj62RSyPhr-15" value="Actor" style="shape=umlActor;verticalLabelPosition=bottom;verticalAlign=top;html=1;outlineConnect=0;sketch=1;hachureGap=4;jiggle=2;curveFitting=1;fontFamily=Architects Daughter;fontSource=https%3A%2F%2Ffonts.googleapis.com%2Fcss%3Ffamily%3DArchitects%2BDaughter;fontSize=20;" vertex="1" parent="1">
          <mxGeometry x="480" y="265" width="30" height="60" as="geometry" />
        </mxCell>
        <mxCell id="8P9D7xR69Wtj62RSyPhr-18" style="edgeStyle=none;curved=1;rounded=0;sketch=1;hachureGap=4;jiggle=2;curveFitting=1;orthogonalLoop=1;jettySize=auto;html=1;entryX=0.591;entryY=0.9;entryDx=0;entryDy=0;entryPerimeter=0;fontFamily=Architects Daughter;fontSource=https%3A%2F%2Ffonts.googleapis.com%2Fcss%3Ffamily%3DArchitects%2BDaughter;fontSize=16;startSize=8;endSize=8;" edge="1" parent="1" source="8P9D7xR69Wtj62RSyPhr-15" target="8P9D7xR69Wtj62RSyPhr-3">
          <mxGeometry relative="1" as="geometry" />
        </mxCell>
        <mxCell id="8P9D7xR69Wtj62RSyPhr-19" style="edgeStyle=none;curved=1;rounded=0;sketch=1;hachureGap=4;jiggle=2;curveFitting=1;orthogonalLoop=1;jettySize=auto;html=1;entryX=0.801;entryY=0.933;entryDx=0;entryDy=0;entryPerimeter=0;fontFamily=Architects Daughter;fontSource=https%3A%2F%2Ffonts.googleapis.com%2Fcss%3Ffamily%3DArchitects%2BDaughter;fontSize=16;startSize=8;endSize=8;" edge="1" parent="1" source="8P9D7xR69Wtj62RSyPhr-13" target="8P9D7xR69Wtj62RSyPhr-3">
          <mxGeometry relative="1" as="geometry" />
        </mxCell>
      </root>
    </mxGraphModel>
  </diagram>
</mxfile>
